<svg preserveAspectRatio="none" width="100%" height="100%" overflow="visible" style="display: block;" viewBox="0 0 47 47" fill="none" xmlns="http://www.w3.org/2000/svg">
<g id="Group 5518">
<circle id="Ellipse 52" cx="23.5" cy="23.5" r="23" stroke="var(--stroke-0, black)"/>
<path id="Vector" d="M23.5 23.8125C26.7607 23.8125 29.4062 21.167 29.4062 17.9063C29.4062 14.6455 26.7607 12 23.5 12C20.2393 12 17.5937 14.6455 17.5937 17.9063C17.5937 21.167 20.2393 23.8125 23.5 23.8125ZM28.75 25.125H26.49C25.5795 25.5434 24.5664 25.7813 23.5 25.7813C22.4336 25.7813 21.4246 25.5434 20.51 25.125H18.25C15.3502 25.125 13 27.4752 13 30.375V31.0313C13 32.1182 13.8818 33 14.9687 33H32.0312C33.1182 33 34 32.1182 34 31.0313V30.375C34 27.4752 31.6498 25.125 28.75 25.125Z" fill="var(--fill-0, black)"/>
</g>
</svg>
